# xmcd
#
# Track frame offsets: 
#        183
#        13358
#        30965
#        42345
#        56388
#        67930
#        79438
#        90783
#        102565
#        114068
#        125525
#        137960
#        152658
#        164903
#        178568
#        188910
#        201950
#        213458
#        223190
#        234433
#        248335
#        260753
#        272925
#        283420
#        293883
#        304633
#        316438
#
# Disc length: 4388 seconds
#
# Revision: 15
# Processed by: cddbd v1.5.2PL0 Copyright (c) Steve Scherf et al.
# Submitted via: ExactAudioCopyFreeDBPlugin 1.0
#
DISCID=9411221b
DTITLE=Various Artist - The Complete Stax-Volt Singles, 1959-1975
DYEAR=1991
DGENRE=Soul
TTITLE0=Booker T. and The M.G.'s - Green Onions
TTITLE1=Booker T. and The M.G.'s - Behave Yourself
TTITLE2=William Bell - Any Other Way
TTITLE3=Carla Thomas - I'll Bring it Home to You
TTITLE4=The Mar-Keys - Sack-O-Woe
TTITLE5=Otis Redding - These Arms of Mine
TTITLE6=The Tonettes - Teardrop Sea
TTITLE7=Rufus Thomas - The Dog
TTITLE8=Booker T. and The M.G.'s - Jelly Bread
TTITLE9=William Bell - I Told You So
TTITLE10=The Mar-Keys - Bo Time
TTITLE11=Booker T. and The M.G.'s - Home Grown
TTITLE12=Deanie Parker and The Valadors - My Imaginary Guy
TTITLE13=William Bell - Just As I Thought
TTITLE14=Carla Thomas - What a Fool I've Been
TTITLE15=Eddie Kirk - The Hawg, Part One
TTITLE16=Oscar Mack - Don't Be Afraid of Love
TTITLE17=Cheryl and Pam Johnson - That's My Guy
TTITLE18=Booker T. and The M.G.'s - Chinese Checkers
TTITLE19=William Bell - Somebody Mentioned Your Name
TTITLE20=Bobby Marchan - What Can I Do
TTITLE21=Otis Redding - That's What My Heart Needs
TTITLE22=The Astors - What Can It Be
TTITLE23=Billy and The King Bees - Bango
TTITLE24=Eddie Kirk - Them Bones
TTITLE25=Rufus Thomas - Walking the Dog
TTITLE26=William Bell - I'll Show You
EXTD=
EXTT0=
EXTT1=
EXTT2=
EXTT3=
EXTT4=
EXTT5=
EXTT6=
EXTT7=
EXTT8=
EXTT9=
EXTT10=
EXTT11=
EXTT12=
EXTT13=
EXTT14=
EXTT15=
EXTT16=
EXTT17=
EXTT18=
EXTT19=
EXTT20=
EXTT21=
EXTT22=
EXTT23=
EXTT24=
EXTT25=
EXTT26=
PLAYORDER=
